# xmcd CD database file
#
# Track frame offsets:
#	150
#	18989
#	39674
#	60850
#	86845
#	106738
#	123759
#	149576
#	169082
#	194480
#
# Disc length: 2801 seconds
#
# Revision: 0
# Processed by: cddbd v1.5.1PL0 Copyright (c) Steve Scherf et al.
# Submitted via: CDex 1.50
#
DISCID=800aef0a
DTITLE=Aventura - We Broke The Rules
DYEAR=2004
DGENRE=Rhythmic Soul
TTITLE0=Obsesion
TTITLE1=I Believe (Yo Creo)
TTITLE2=Todavia Me Amas
TTITLE3=Amor De Madre
TTITLE4=Gone
TTITLE5=Mi Puerto Rico
TTITLE6=Ensename A Olvidar
TTITLE7=9:15 Nueve Y Quince
TTITLE8=Obsesion (Dance Mix)
TTITLE9=Cuando Volveras (Bonus Track)
EXTD=YEAR: 2004
EXTT0=
EXTT1=
EXTT2=
EXTT3=
EXTT4=
EXTT5=
EXTT6=
EXTT7=
EXTT8=
EXTT9=
PLAYORDER=
